<svg width="118" height="64" viewBox="0 0 118 64" fill="none" xmlns="http://www.w3.org/2000/svg">
<path fill-rule="evenodd" clip-rule="evenodd" d="M74.0395 6.06H46.4795L51.7195 15.14H62.0495L55.1495 27.09L50.1295 18.39H50.1195L39.4995 0H36.0195L55.1395 33.13L57.3195 29.36L67.2795 12.11H53.4595L51.7095 9.09H72.5095L67.1295 18.39L62.7895 25.9V25.91L56.8895 36.14L58.6295 39.15L77.7295 6.06H74.0395ZM81.2295 0H42.9795L44.7295 3.03H79.4795L81.2295 0Z" fill="#252525"/>
<path fill-rule="evenodd" clip-rule="evenodd" d="M107.919 44.8799V47.8399H114.479L109.709 54.6199H112.829L117.609 47.8399V44.8799H107.919Z" fill="#252525"/>
<path fill-rule="evenodd" clip-rule="evenodd" d="M88.0195 52.3299H100.08V54.6199H88.0195V52.3299ZM90.3695 60.8499V56.9199H88.0195V60.8499V63.1399H90.3695H105.75V60.8499H90.3695ZM90.3095 47.8399V50.0299H88.0195V47.8399V44.8799H90.3095H105.17V47.8399H90.3095Z" fill="#252525"/>
<path fill-rule="evenodd" clip-rule="evenodd" d="M65.0996 60.8597C65.9596 61.7097 69.4396 63.0097 70.8096 63.3097C73.3596 63.8497 75.6096 63.9497 78.1296 63.2997C83.4996 61.9297 84.4196 56.0197 80.9896 53.5697C76.6696 50.4797 68.1896 53.5797 68.5496 49.4797C68.7396 47.3897 72.1996 46.8997 74.2896 47.1597C75.6496 47.3197 76.4496 47.6397 77.5596 47.9597C78.2996 48.2397 78.3896 48.2797 79.0496 48.6197C79.4996 48.8797 79.9896 49.1397 80.3996 49.4297L81.8696 47.0997C78.8296 44.7797 72.2696 43.5097 68.2696 45.6297C66.7096 46.4597 64.8596 48.8397 66.0196 51.4797C67.9996 55.9997 76.3196 53.2497 79.1096 55.5697C79.8996 56.2197 80.3696 57.3897 79.8296 58.6597C78.4696 61.8897 72.5996 61.3697 70.0696 60.3597C68.9196 59.9097 68.0996 59.5297 67.1296 58.9597C66.8296 58.7897 66.6496 58.6997 66.5096 58.6097L65.0996 60.8597Z" fill="#252525"/>
<path fill-rule="evenodd" clip-rule="evenodd" d="M44.4395 63.0899H47.2095V50.6699L58.8895 63.0899H60.2495V44.8799H57.4795V57.5899L45.6195 44.8799H44.4395V63.0899Z" fill="#252525"/>
<path fill-rule="evenodd" clip-rule="evenodd" d="M22.5898 52.3299H34.6498V54.6199H22.5898V52.3299ZM24.9398 60.8499V56.9199H22.5898V60.8499V63.1399H24.9398H40.3198V60.8499H24.9398ZM24.8898 47.8399V50.0299H22.5898V47.8399V44.8799H24.8898H39.7498V47.8399H24.8898Z" fill="#252525"/>
<path fill-rule="evenodd" clip-rule="evenodd" d="M-0.390625 60.8597C0.469375 61.7097 3.94938 63.0097 5.31938 63.3097C7.85938 63.8497 10.1194 63.9497 12.6394 63.2997C18.0094 61.9297 18.9194 56.0197 15.4894 53.5697C11.1794 50.4797 2.68937 53.5797 3.05937 49.4797C3.24937 47.3897 6.70938 46.8997 8.79938 47.1597C10.1594 47.3197 10.9594 47.6397 12.0694 47.9597C12.8094 48.2397 12.8994 48.2797 13.5494 48.6197C14.0094 48.8797 14.4894 49.1397 14.9094 49.4297L16.3694 47.0997C13.3394 44.7797 6.77938 43.5097 2.77938 45.6297C1.21938 46.4597 -0.630625 48.8397 0.529375 51.4797C2.50938 55.9997 10.8294 53.2497 13.6194 55.5697C14.4094 56.2197 14.8694 57.3897 14.3394 58.6597C12.9794 61.8897 7.10938 61.3697 4.57937 60.3597C3.42937 59.9097 2.60938 59.5297 1.62937 58.9597C1.33938 58.7897 1.15937 58.6997 1.01937 58.6097L-0.390625 60.8597Z" fill="#252525"/>
</svg>
