<svg width="25" height="26" viewBox="0 0 25 26" fill="none" xmlns="http://www.w3.org/2000/svg">
<path d="M6.47852 3.2644L19.0118 10.0228" stroke="#252525" stroke-miterlimit="10"/>
<path d="M24.5 7.18359L13.3 12.9764L0.5 6.35559" stroke="#252525" stroke-miterlimit="10"/>
<path d="M13.3022 12.9766V24.563" stroke="#252525" stroke-miterlimit="10"/>
<path d="M24.5 7.18367V18.7701L13.3 24.5629L0.5 17.9421V6.35566L11.7 0.562866L24.5 7.18367Z" stroke="#252525" stroke-miterlimit="10" stroke-linecap="square"/>
<path d="M5.0906 15.0348C5.10036 14.835 5.16164 14.6416 5.26807 14.4747C5.3745 14.3077 5.52216 14.1733 5.6958 14.0854C5.86943 13.9974 6.06265 13.9592 6.2554 13.9747C6.44814 13.9901 6.63339 14.0586 6.79187 14.1732C7.21548 14.4047 7.56692 14.7558 7.80525 15.1858C8.04358 15.6157 8.15899 16.1068 8.1382 16.602C8.12844 16.8017 8.06716 16.9951 7.96073 17.1621C7.85429 17.329 7.70664 17.4634 7.533 17.5514C7.35937 17.6393 7.16615 17.6775 6.9734 17.6621C6.78066 17.6467 6.59541 17.5781 6.43693 17.4636C6.01323 17.2321 5.66173 16.881 5.42326 16.451C5.1848 16.0211 5.06912 15.53 5.08975 15.0348" fill="#2D47BE"/>
<path d="M9.74133 17.4237C9.74755 17.2902 9.78829 17.1609 9.85933 17.0493C9.93037 16.9376 10.0291 16.8478 10.1452 16.7891C10.2612 16.7304 10.3905 16.705 10.5193 16.7156C10.6481 16.7262 10.7717 16.7724 10.8773 16.8493C11.1598 17.0036 11.3941 17.2377 11.5531 17.5243C11.712 17.811 11.789 18.1384 11.7752 18.4685C11.7687 18.6019 11.7278 18.7311 11.6567 18.8425C11.5856 18.954 11.4869 19.0438 11.371 19.1024C11.255 19.161 11.1259 19.1865 10.9972 19.176C10.8685 19.1655 10.7449 19.1196 10.6392 19.0429C10.3567 18.8886 10.1224 18.6545 9.96345 18.3679C9.80452 18.0813 9.72749 17.7538 9.74133 17.4237Z" fill="#2D47BE"/>
<path d="M1.45591 13.1701C1.46213 13.0366 1.50287 12.9072 1.57391 12.7956C1.64495 12.684 1.74367 12.5941 1.85975 12.5354C1.97583 12.4767 2.10497 12.4513 2.23376 12.4619C2.36255 12.4725 2.48627 12.5187 2.59191 12.5957C2.87443 12.7499 3.10878 12.984 3.26772 13.2706C3.42667 13.5573 3.50368 13.8847 3.48975 14.2149C3.48344 14.3482 3.44265 14.4774 3.37166 14.5889C3.30066 14.7005 3.20205 14.7902 3.0861 14.8489C2.97015 14.9076 2.84114 14.933 2.71246 14.9225C2.58378 14.912 2.46014 14.866 2.3545 14.7893C2.07204 14.635 1.83772 14.4009 1.67879 14.1142C1.51985 13.8276 1.44282 13.5002 1.45666 13.1701" fill="#2D47BE"/>
</svg>
