<svg width="24" height="24" viewBox="0 0 24 24" fill="none" xmlns="http://www.w3.org/2000/svg">
<path d="M7.08398 4.86621L11.852 11.4828H18.3796" stroke="#2D47BE" stroke-miterlimit="10" stroke-linecap="square"/>
<path d="M1.48908 15.7058C2.50353 18.3706 4.44456 20.549 6.93255 21.8149C9.42055 23.0808 12.2766 23.3432 14.9421 22.5508C17.6076 21.7583 19.8908 19.9681 21.3453 17.5301C22.7998 15.0921 23.3209 12.1818 22.8067 9.36825C22.2925 6.55471 20.78 4.04034 18.565 2.31687C16.35 0.593391 13.5918 -0.215225 10.8298 0.0491565C8.06777 0.313538 5.50065 1.6319 3.63044 3.74642C1.76023 5.86093 0.721466 8.61951 0.717285 11.4827" stroke="#252525" stroke-miterlimit="10"/>
<path d="M0.211085 20.9347L1.4043 15.4695L6.06461 18.0669" stroke="#252525" stroke-width="1.00012" stroke-miterlimit="10" stroke-linecap="square"/>
</svg>
