<svg width="26" height="24" viewBox="0 0 26 24" fill="none" xmlns="http://www.w3.org/2000/svg">
<path d="M19.6403 15.544C21.413 15.544 22.85 14.0791 22.85 12.272C22.85 10.4649 21.413 9 19.6403 9C17.8677 9 16.4307 10.4649 16.4307 12.272C16.4307 14.0791 17.8677 15.544 19.6403 15.544Z" fill="#2D47BE"/>
<path d="M12.5146 2V21.6854" stroke="#3C1400" stroke-miterlimit="10" stroke-linecap="square"/>
<path d="M6.91504 21.9999H18.1142" stroke="#3C1400" stroke-miterlimit="10" stroke-linecap="square"/>
<path d="M0.514648 11.6423H10.1146" stroke="#3C1400" stroke-miterlimit="10"/>
<path d="M14.9146 11.6423H24.5146" stroke="#3C1400" stroke-miterlimit="10"/>
<path d="M19.7146 4.41064L14.9146 11.6423C15.0265 12.812 15.5934 13.8902 16.4922 14.6425C17.3909 15.3949 18.5489 15.7606 19.7146 15.6603C20.8804 15.7606 22.0384 15.3949 22.9371 14.6425C23.8359 13.8902 24.4028 12.812 24.5146 11.6423L19.7146 4.41064ZM19.7146 4.41064H5.31465L0.514648 11.6423C0.626511 12.812 1.1934 13.8902 2.09216 14.6425C2.99092 15.3949 4.14894 15.7606 5.31465 15.6603C6.48035 15.7606 7.63838 15.3949 8.53714 14.6425C9.4359 13.8902 10.0028 12.812 10.1146 11.6423L5.31465 4.41064" stroke="#3C1400" stroke-miterlimit="10"/>
</svg>
