<svg width="25" height="24" viewBox="0 0 25 24" fill="none" xmlns="http://www.w3.org/2000/svg">
<path d="M15.4297 16.6026H23.7762C23.9682 16.6026 24.1522 16.53 24.288 16.4007C24.4237 16.2714 24.4999 16.0961 24.4999 15.9132V14.081C24.5 13.6546 24.3779 13.2363 24.1468 12.8712C23.9157 12.5061 23.5844 12.208 23.1885 12.0091L22.58 11.7029C22.1633 11.4933 21.805 11.1922 21.5349 10.8244L19.5917 8.18027C19.4206 7.94756 19.1931 7.75755 18.9286 7.62636C18.6641 7.49518 18.3703 7.42668 18.0721 7.42664H15.4322" stroke="#252525" stroke-miterlimit="10"/>
<path d="M20.1596 18.9999C21.2423 18.9999 22.1199 18.1637 22.1199 17.1322C22.1199 16.1006 21.2423 15.2644 20.1596 15.2644C19.0769 15.2644 18.1992 16.1006 18.1992 17.1322C18.1992 18.1637 19.0769 18.9999 20.1596 18.9999Z" fill="white" stroke="#252525" stroke-miterlimit="10"/>
<path d="M20.1595 18.0918C20.7157 18.0918 21.1666 17.6622 21.1666 17.1323C21.1666 16.6023 20.7157 16.1727 20.1595 16.1727C19.6032 16.1727 19.1523 16.6023 19.1523 17.1323C19.1523 17.6622 19.6032 18.0918 20.1595 18.0918Z" fill="#2D47BE"/>
<path d="M15.4292 16.602V5.4509C15.4292 5.33132 15.3793 5.21661 15.2906 5.13205C15.2018 5.04749 15.0815 5 14.956 5H0.973297C0.847782 5 0.727386 5.04749 0.638633 5.13205C0.549881 5.21661 0.5 5.33132 0.5 5.4509V16.1511C0.500162 16.2707 0.550066 16.3852 0.638783 16.4698C0.7275 16.5543 0.847832 16.6019 0.973297 16.602H15.4292" stroke="#252525" stroke-miterlimit="10"/>
<path d="M5.18497 18.9999C6.26764 18.9999 7.14532 18.1637 7.14532 17.1322C7.14532 16.1006 6.26764 15.2644 5.18497 15.2644C4.10229 15.2644 3.22461 16.1006 3.22461 17.1322C3.22461 18.1637 4.10229 18.9999 5.18497 18.9999Z" fill="white" stroke="#252525" stroke-miterlimit="10"/>
<path d="M5.18534 18.0918C5.74155 18.0918 6.19246 17.6622 6.19246 17.1323C6.19246 16.6023 5.74155 16.1727 5.18534 16.1727C4.62912 16.1727 4.17822 16.6023 4.17822 17.1323C4.17822 17.6622 4.62912 18.0918 5.18534 18.0918Z" fill="#2D47BE"/>
</svg>
