<svg width="24" height="24" viewBox="0 0 24 24" fill="none" xmlns="http://www.w3.org/2000/svg">
<g clip-path="url(#clip0_1752_1633)">
<path d="M0 6.06764L11.8001 12.9428C11.8636 12.9802 11.9368 13 12.0116 13C12.0863 13 12.1596 12.9802 12.2231 12.9428L24 6" stroke="#252525" stroke-miterlimit="10"/>
<path d="M21.5859 4.5L21.7793 4.50977C22.2253 4.55409 22.639 4.73971 22.9502 5.03027C23.3046 5.36125 23.4964 5.80078 23.498 6.25098L23.499 6.35059L23.5 6.35254V17.7334C23.5026 18.1864 23.312 18.6296 22.957 18.9639C22.6008 19.2993 22.1089 19.4961 21.5869 19.5H2.41309C1.89129 19.4962 1.39914 19.3001 1.04297 18.9648C0.687954 18.6305 0.497274 18.1863 0.5 17.7334V6.25098C0.501632 5.80076 0.694298 5.3613 1.04883 5.03027C1.36013 4.73963 1.77358 4.554 2.21973 4.50977L2.41211 4.5H21.5859Z" stroke="#252525" stroke-miterlimit="10"/>
</g>
<defs>
<clipPath id="clip0_1752_1633">
<rect width="24" height="24" fill="white"/>
</clipPath>
</defs>
</svg>
